<svg xmlns="http://www.w3.org/2000/svg"
     width="430"
     height="430"
     viewBox="0 0 430 430">

  <!-- stays black -->
  <path fill="#000000"
        d="M259.63,12.84C271.95,23 276.74,37.11 278.7,52.51C279.15,57.68 279.17,62.81 279,68C279.72,67.23 280.43,66.45 281.17,65.66C293.5,52.64 307.31,44.03 325.56,42.75C344.49,43.12 357.53,52.95 370.54,65.44C383.05,78.5 389.45,94.14 389.28,112.2C387.93,130.64 377.55,142.54 365,155C366.03,155.1 366.03,155.1 367.07,155.2C386.67,157.12 404.07,159.16 418.31,174.25C427.74,186.26 430.57,200.39 430.44,215.31C430.43,217.09 430.43,217.09 430.41,218.9C430.09,235.93 425.36,251.32 413.34,263.82C399.22,277 380.67,279.63 362,279C362.71,279.55 362.71,279.55 363.43,280.11C375.27,289.8 385.38,304.44 387,320C388.13,336.1 383.48,349.23 373.16,361.55C360.62,375.72 344.65,387.69 325.21,389.32C310.56,389.94 296.84,385.73 285.65,375.95C283.7,374.01 281.85,372.03 280,370C278.34,368.33 276.67,366.66 275,365C274.84,366.96 274.84,366.96 274.67,368.95C272.97,388.15 270.03,405.43 255,419C239.05,430.7 218.71,432.2 199.56,429.68C195.22,428.86 191.13,427.56 187,426C186,425.63 185,425.25 183.97,424.87C169.7,418.95 160.91,409.07 155,395C151.22,384.72 151.31,373.82 151,363C150.34,363.68 150.34,363.68 149.67,364.37C136.93,377.31 122.18,386.76 103.69,387.31C85.96,386.94 72.98,378.45 61,366C48.26,352.12 40.02,336.9 40.62,317.67C42.51,299.52 52.64,287.33 65,275C64.31,274.93 63.61,274.86 62.9,274.79C31.53,271.55 31.53,271.55 19,262C17.45,260.89 17.45,260.89 15.88,259.75C6.57,250.85 0.7,238.31 -0.18,225.39C-0.64,204.41 0.82,184.96 14.75,168.06C27.33,155.02 43.83,151.29 61.33,150.96C63.22,150.95 65.11,150.97 67,151C66.05,150.13 65.1,149.27 64.13,148.38C55.51,139.71 48.9,129.59 45,118C44.76,117.32 44.51,116.64 44.26,115.93C40.6,104.01 43.28,91.93 48.44,80.94C58.27,62.78 75.78,48.26 95.5,42C110.27,38.65 124.24,41.66 137.23,49.09C141.66,52.15 145.51,55.77 149.37,59.51C151.5,61.53 153.61,63.31 156,65C155.98,64.45 155.95,63.9 155.93,63.34C155.49,44.24 159.75,27.15 172.91,12.94C195,-8.11 236.34,-3.51 259.63,12.84Z" />

  <path fill="var(--placeholder-color-1)" d="M249.86,21.29C258.88,28.5 264.03,37.62 266,49C267.85,74.57 262.45,100.56 251.16,123.61C249.93,126.14 248.91,128.7 247.88,131.31C243.84,141.14 238.81,150.54 234,160C232.08,159.76 230.13,159.51 214.94,158.88C207.16,158.87 202.16,159.25 197,160C187.29,142.02 180.15,122.76 175,103C174.82,102.3 174.63,101.6 174.44,100.87C168.62,78.34 163.24,50.48 175.61,29.23C181.05,21.7 188.07,16.52 197,14C215.89,9.21 235.34,11.56 249.86,21.29Z" />
  <path fill="var(--placeholder-color-2)" d="M349.56,63.63C358.88,70.82 366.33,78.65 372,89C372.65,90.11 373.32,91.25 375.41,121.03C369.96,136.53 355.42,148.44 342,157C341.46,157.35 340.93,157.7 340.37,158.06C321.88,169.99 301.26,178.62 280.38,185.38C276.75,186.55 268.4,189.13 265,188C263.57,186 262.24,184.01 260.94,181.94C255.69,173.97 249.21,168.81 241,164C243.04,156.65 245.61,149.65 248.56,142.63C249.89,139.47 282.15,70.29 315.19,56.69C328.16,54.35 338.74,56.14 349.56,63.63Z" />
  <path fill="var(--placeholder-color-3)" d="M367.94,168.81C368.86,168.8 369.79,168.79 370.74,168.78C383.56,168.75 397.26,171.53 406.78,180.71C416.77,191.38 418.68,204.29 418.32,218.48C417.6,232.37 413.6,246.62 403.15,256.25C390.01,266.95 372.62,267.39 356.44,265.74C325.55,261.87 297.39,247.98 270,234C270.16,232.72 270.32,231.45 270.49,230.13C271.05,225.05 271.15,220.04 271.13,214.94C271.14,212.37 270.75,202.16 270,197C299.53,181.29 334.19,168.84 367.94,168.81Z" />
  <path fill="var(--placeholder-color-4)" d="M266,241C303.76,253.19 351.83,273.25 371.44,310.38C375.07,318.79 375.51,329.88 373,338.75C370.73,344.46 366.78,349.22 363,354C362.52,354.65 362.03,355.3 361.53,355.97C353.68,365.99 341.26,373.06 329,376C321.13,376.31 304.83,375.97 285,358C265.68,335.57 254.69,308.65 245,281C243.79,277.66 241.61,271.56 242,265C246.75,261.56 257,253 266,241Z" />
  <path fill="var(--placeholder-color-5)" d="M197,270C197.75,270.14 198.5,270.29 199.27,270.44C209.21,272.24 217.66,272.51 227.55,270.44C234,270 244.14,293.65 258.52,341.77C261.25,367.06 259,389 241.25,412.94C225.47,419.79 206.87,420.25 190.75,414.19C180.51,409.71 172.05,403.59 167.63,392.94C164.73,385.01 163.64,377.83 163.69,369.44C163.7,366.49 164.96,350.94 167,343C173.19,316.28 182.59,288.17 197,270Z" />
  <path fill="var(--placeholder-color-6)" d="M165,242C166.68,244.04 168.31,246.63 189,266C185.05,288.97 170.87,313.86 158,333C145.8,351.26 132.43,367.37 113.13,373.61C102.5,375.58 91.9,374.34 82.71,368.56C74.2,361.39 62.82,350.67 53.65,324.13C53.95,311.18 57,305 72.09,275.98C105.59,261.64 149.86,244.42 165,242Z" />
  <path fill="var(--placeholder-color-7)" d="M160,196C159.84,197.27 159.68,198.53 159.51,199.84C158.93,205.09 158.85,210.28 158.88,215.56C158.86,218.27 159.22,228.72 160,234C72.63,272.05 36.59,258.26 14,234C9.32,218.54 10.88,199.47 18.25,185.06C24.53,175.05 31.88,168.71 43.19,165.19C82.58,156.48 126.32,178.25 160,196Z" />
  <path fill="var(--placeholder-color-8)" d="M134.08,62.57C135.03,63.28 136,64 138.63,65.88C162.77,87.48 175.95,121.07 186,151C187.79,156.4 188,165 165,189C147.06,183.69 112.52,168.89 57.94,118.25C54.69,109.65 54.41,99.4 57.5,90.69C65.45,74.06 79.44,62.42 96,55C122.63,54.41 134.08,62.57Z" />
  <path fill="var(--placeholder-color-9)" d="M246.56,179.77C255.33,187.79 261.16,199.64 262.22,211.49C262.61,223.2 259.84,233.48 253,243C251.66,244.93 244.59,254.14 221,262C206.92,263.26 194.58,258.85 183.63,250.11C169.49,231.79 168.76,220.25 179,185C197.94,163.62 227.2,164.77 246.56,179.77Z" />

</svg>